<svg data-v-0dd9719b="" version="1.0" xmlns="http://www.w3.org/2000/svg" xmlns:xlink="http://www.w3.org/1999/xlink" width="100%" height="100%" viewBox="0 0 340.000000 250.000000" preserveAspectRatio="xMidYMid meet" color-interpolation-filters="sRGB" style="margin: auto;"> <rect data-v-0dd9719b="" x="0" y="0" width="100%" height="100%" fill="#feffff" fill-opacity="0" class="background"></rect> <rect data-v-0dd9719b="" x="0" y="0" width="100%" height="100%" fill="url(#watermark)" fill-opacity="1" class="watermarklayer"></rect> <g data-v-0dd9719b="" fill="#0a0a0a" class="iconlinesvg-g iconlinesvg" transform="translate(69.05500030517578,101.9869613647461)"><g class="tp-name" transform="translate(0,0)"><g transform="translate(0, 0)"><g data-gra="path-name" fill="#0a0a0a" transform="scale(1)"><path d="M3.36-26.90L3.36-26.90L8.34-26.90Q6.99-22.46 6.99-22.33L6.99-22.33L6.99-7.53L2.29-7.53L2.29-17.22L0.27-17.22Q3.36-26.77 3.36-26.90ZM15.74-26.90L15.74-26.90L20.45-26.90L20.45-26.90Q19.77-24.48 19.77-24.48L19.77-24.48L31.34-24.48L31.34-21.79L30.40-21.79L30.40-15.34Q30.40-14.39 29.32-13.86L29.32-13.86Q29.19-13.59 26.37-11.57L26.37-11.57Q26.10-11.43 26.10-11.43L26.10-11.43Q31.21-7.53 31.34-7.53L31.34-7.53L31.34-7.53L25.02-7.53L22.87-9.01L20.72-7.53L14.39-7.53Q14.53-7.67 16.95-9.42L16.95-9.42L19.64-11.43Q19.51-11.43 15.74-14.26L15.74-14.26Q15.20-14.80 15.20-15.47L15.20-15.47L15.20-20.72L20.31-20.72L20.31-16.68Q20.31-15.87 21.25-15.20L21.25-15.20L22.87-13.99Q24.89-15.47 25.02-15.60L25.02-15.60Q25.42-16.14 25.42-16.68L25.42-16.68L25.42-21.79L14.39-21.79Q15.34-25.29 15.74-26.90ZM9.01-8.61L9.01-25.02L13.32-25.02L13.32-8.61L9.01-8.61ZM2.15-6.73L7.80-6.73L5.65 4.17L0 4.17Q1.35-2.29 2.15-6.73L2.15-6.73ZM8.61 1.48L8.61-6.73L14.26-6.73L14.26 0.13Q14.26 1.08 15.20 1.35L15.20 1.35Q15.34 1.48 15.60 1.48L15.60 1.48L24.08 1.48L24.08 4.17L11.16 4.17Q9.95 4.17 9.01 2.96L9.01 2.96Q8.61 2.29 8.61 1.48L8.61 1.48ZM15.87-6.73L15.87-6.73L21.25-6.73Q21.25-6.59 21.52-5.65L21.52-5.65Q21.66-5.38 23.14-0.40L23.14-0.40L17.76-0.40Q17.62-0.81 15.87-6.73ZM25.69 4.17L23.54-6.73L29.19-6.73Q29.19-6.73 29.32-5.78L29.32-5.78Q29.59-4.44 31.34 4.17L31.34 4.17L25.69 4.17Z" transform="translate(0, 26.903577577960597)"></path></g></g><g transform="translate(35, 0)"><g data-gra="path-name" fill="#0a0a0a" transform="scale(1)"><path d="M2.69-26.90L2.69-26.90L7.94-26.90L5.65-19.37L0.27-19.37L0.27-19.37Q2.56-26.63 2.69-26.90ZM19.91-20.72L19.91-26.90L25.02-26.90L25.02-20.72L31.21-20.72L31.21-17.89L26.37-17.89L31.21-3.63L26.23-3.63L22.60-14.53L22.46-14.53L18.83-3.63L13.72-3.63L18.70-17.89L15.60-17.89L15.60-20.72L19.91-20.72ZM26.90-22.06L25.15-26.37L29.32-26.37Q30.94-22.06 30.94-22.06L30.94-22.06L26.90-22.06ZM8.34-24.75L12.91-24.75Q14.93-24.75 15.47-23.81L15.47-23.81Q15.74-23.41 15.74-22.73L15.74-22.73Q15.74-22.06 15.34-20.85L15.34-20.85Q15.34-20.85 10.49-4.84L10.49-4.84Q10.36-4.17 9.69-3.90L9.69-3.90Q9.42-3.63 8.88-3.63L8.88-3.63L0.27-3.63L0.27-6.46L4.04-6.46Q5.25-6.46 5.78-7.67L5.78-7.67L5.78-7.67L4.04-7.67Q3.90-7.67 0.27-13.45L0.27-13.45L5.65-13.45Q6.46-11.97 6.86-11.43L6.86-11.43L6.99-11.43L7.40-13.05L6.46-13.05Q6.46-13.18 2.69-18.97L2.69-18.97L8.07-18.97L8.88-17.62L8.88-17.62Q9.82-20.85 9.82-20.98L9.82-20.98L9.82-21.12Q9.82-21.79 9.15-21.93L9.15-21.93Q9.15-22.06 9.01-22.06L9.01-22.06L7.40-22.06Q7.94-23.81 8.34-24.75L8.34-24.75ZM0 4.17L2.15-2.82L7.80-2.82L7.80-2.82L5.65 4.17L0 4.17L0 4.17ZM11.03 4.17L8.74-2.82L14.53-2.82L16.68 4.17L11.03 4.17ZM16.14-2.82L16.14-2.82L21.79-2.82Q21.79-2.69 22.06-1.88L22.06-1.88L23.94 4.17L18.29 4.17Q18.29 4.17 17.89 2.96L17.89 2.96Q17.89 2.82 16.14-2.82ZM23.41-2.82L23.41-2.82L29.06-2.82L31.21 4.17L25.56 4.17Q23.41-2.82 23.41-2.82Z" transform="translate(0, 26.903577577960597)"></path></g></g><g transform="translate(70, 0)"><g data-gra="path-name" fill="#0a0a0a" transform="scale(1)"><path d="M1.35-7.94L1.35-7.94L1.35-8.54Q1.35-10.59 2.32-12.66L2.32-12.66Q3.04-14.48 4.37-16.18L4.37-16.18Q7.16-19.67 10.91-21.14L10.91-21.14Q14.43-22.35 16.60-22.35L16.60-22.35L17.92-22.35Q23.25-22.23 26.65-19.07L26.65-19.07Q29.91-15.57 30.03-11.20L30.03-11.20L30.03-10.36Q29.91-6.24 26.89-2.72L26.89-2.72Q23.49 1.45 17.81 2.72L17.81 2.72L17.81-0.44Q25.95-3.58 26.53-10.96L26.53-10.96L26.53-11.57Q26.40-14.36 23.86-17.13L23.86-17.13Q21.44-19.07 18.78-19.32L18.78-19.32Q17.81-14.71 16.11-10.48L16.11-10.48Q15.87-10.12 15.76-9.75L15.76-9.75Q13.82-4.79 12.48-2.61L12.48-2.61Q10.66 0.30 8.49 0.42L8.49 0.42Q4.98 0.30 2.56-3.82L2.56-3.82Q1.35-5.63 1.35-7.94ZM4.49-9.15L4.49-9.15L4.49-8.54Q4.49-6.49 5.70-4.91L5.70-4.91Q6.56-3.33 8.00-3.33L8.00-3.33Q9.10-3.21 10.19-4.91L10.19-4.91Q10.66-5.52 11.40-7.21L11.40-7.21Q11.52-7.45 11.75-7.82L11.75-7.82Q14.78-14.36 15.76-19.32L15.76-19.32Q13.33-19.07 11.27-18.11L11.27-18.11Q8.12-16.41 6.31-13.62L6.31-13.62Q4.49-10.96 4.49-9.15Z" transform="translate(-1.34517887889803, 26.903577577960597)"></path></g></g><g transform="translate(102, 1.1361749328036055)"><g><g class="imagesvg"><g><rect fill="#0a0a0a" fill-opacity="0" stroke-width="2" x="0" y="0" width="32.91871354552983" height="28.80128223693728" class="image-rect"></rect> <svg x="0" y="0" width="32.91871354552983" height="28.80128223693728" filtersec="colorsb1854495004" class="image-svg-svg primary" style="overflow: visible;"><svg xmlns="http://www.w3.org/2000/svg" viewBox="0.47069674730300903 -0.008253796026110649 99.05030822753906 86.6612548828125"><path fill="#0A0A0A" d="M99.521 83.617c0-.221-.083-.435-.248-.656-.38-.876-.656-1.338-.821-1.394L55.789 7.627C53.933 4.35 52.76 2.438 52.27 1.893c-.166-.545-.655-1.09-1.477-1.635a2.982 2.982 0 0 0-1.552-.249c-.821.166-1.477.573-1.966 1.229L32.695 27.03 3.867 76.413C1.955 79.415.865 81.733.589 83.375l-.083.656v.083c-.165 1.09.249 1.883 1.229 2.373l1.31.166 68.87-.49 26.371-.573.821-.248.166-.325c.166-.165.248-.634.248-1.4m-61.5-55.766l11.627-20.39 42.828 73.375h-23.17L50.794 48.572C44.245 37.704 40.23 31.128 38.753 28.838a4.583 4.583 0 0 0-.731-.987m-2.947 4.83l9.66 15.235 18.589 32.837H39.823L25.167 54.878c-.766-1.476-1.283-2.29-1.553-2.456L35.075 32.68M7.724 80.836l13.593-22.439 13.103 21.95-24.074.49H7.724z"></path></svg></svg> <!----></g></g></g></g><g transform="translate(138, 0)"><g data-gra="path-name" fill="#0a0a0a" transform="scale(1)"><path d="M0-0.54L0-23.54L5.38-23.54L5.38-1.61Q5.38-0.67 6.46-0.13L6.46-0.13Q6.73-0.13 6.99-0.13L6.99-0.13L13.45-0.13L13.45 2.56L3.09 2.56Q1.61 2.56 0.67 1.21L0.67 1.21Q0 0.40 0-0.54L0-0.54Z" transform="translate(0, 26.903577577960597)"></path></g></g><g transform="translate(155, 0)"><g data-gra="path-name" fill="#0a0a0a" transform="scale(1)"><path d="M4.30-23.81L4.30-23.81L6.05-23.81Q6.99-23.81 7.40-23.41L7.40-23.41Q7.94-23.00 7.94-22.20L7.94-22.20L7.94-20.18Q7.94-18.97 6.73-18.56L6.73-18.56Q6.46-18.56 6.46-18.56L6.46-18.56L4.04-18.56Q3.09-18.56 2.56-19.51L2.56-19.51Q2.56-19.77 2.56-20.04L2.56-20.04L2.56-22.33Q2.56-23.14 3.23-23.68L3.23-23.68Q3.63-23.81 4.30-23.81ZM2.56 2.56L2.56-16.55L7.94-16.55L7.94 2.56L2.56 2.56Z" transform="translate(-2.5558398699062566, 26.903577577960597)"></path></g></g><g transform="translate(164, 0)"><g data-gra="path-name" fill="#0a0a0a" transform="scale(1)"><path d="M3.09-16.95L3.09-16.95L13.32-16.95Q14.80-16.95 15.74-15.60L15.74-15.60Q16.41-14.80 16.41-13.86L16.41-13.86L16.41-12.64L11.03-12.64L11.03-12.78Q11.03-13.72 10.09-14.26L10.09-14.26Q9.82-14.39 9.42-14.39L9.42-14.39L6.99-14.39Q6.05-14.39 5.52-13.32L5.52-13.32Q5.38-13.05 5.38-12.78L5.38-12.78L5.38-10.09Q5.38-9.15 6.46-8.61L6.46-8.61Q6.73-8.47 6.99-8.47L6.99-8.47L13.32-8.47Q15.47-8.47 16.41-6.59L16.41-6.59Q16.68-6.05 16.68-5.25L16.68-5.25L16.68-0.81Q16.68 1.48 14.53 2.42L14.53 2.42Q13.99 2.56 13.59 2.56L13.59 2.56L3.09 2.56Q1.61 2.56 0.67 1.21L0.67 1.21Q0 0.40 0-0.54L0-0.54L0-1.88L5.38-1.88L5.38-1.61Q5.38-0.67 6.46-0.13L6.46-0.13Q6.73-0.13 6.99-0.13L6.99-0.13L9.69-0.13Q10.76-0.13 11.16-1.08L11.16-1.08Q11.30-1.35 11.30-1.75L11.30-1.75L11.30-4.17Q11.30-5.38 10.22-5.78L10.22-5.78Q10.09-5.92 9.82-5.92L9.82-5.92L3.50-5.92Q2.15-5.92 1.48-6.46L1.48-6.46Q0.94-6.86 0.54-7.40L0.54-7.40Q0.13-8.21 0.13-9.01L0.13-9.01L0.13-13.86Q0.13-15.34 1.48-16.41L1.48-16.41Q2.29-16.95 3.09-16.95Z" transform="translate(0, 26.903577577960597)"></path></g></g><g transform="translate(184, 0)"><g data-gra="path-name" fill="#0a0a0a" transform="scale(1)"><path d="M3.77-15.74L3.77-19.91L9.15-19.91L9.15-15.34Q9.15-14.53 9.95-13.99L9.95-13.99Q10.36-13.86 10.76-13.86L10.76-13.86L17.49-13.86L17.49-11.16L10.76-11.16Q9.55-11.16 9.15-10.09L9.15-10.09Q9.15-9.82 9.15-9.69L9.15-9.69L9.15-1.61Q9.15-0.67 10.09-0.27L10.09-0.27Q10.36-0.13 10.76-0.13L10.76-0.13L10.90-0.13Q11.97-0.13 12.38-1.08L12.38-1.08Q12.51-1.35 12.51-1.75L12.51-1.75L12.51-2.15L17.89-2.15L17.89-0.81Q17.89 1.48 15.87 2.42L15.87 2.42Q15.34 2.56 14.80 2.56L14.80 2.56L6.86 2.56Q5.25 2.56 4.17 1.08L4.17 1.08Q3.77 0.27 3.77-0.40L3.77-0.40L3.77-9.28Q3.77-10.22 3.50-10.63L3.50-10.63Q2.96-11.16 2.15-11.16L2.15-11.16L0-11.16L0-13.86L2.02-13.86Q3.36-13.86 3.77-14.93L3.77-14.93Q3.77-15.34 3.77-15.74L3.77-15.74Z" transform="translate(0, 26.903577577960597)"></path></g></g></g> <g data-gra="path-slogan" fill-rule="" class="tp-slogan" fill="#0a0a0a" transform="translate(5,37.06999969482422)"><rect x="0" height="1" y="3.9750008583068848" width="30.860000610351562"></rect> <rect height="1" y="3.9750008583068848" width="30.860000610351562" x="161.02999877929688"></rect> <g transform="translate(33.86000061035156,0)"><g transform="scale(1)"><path d="M6.56 0L5.72-2.48L2.25-2.48L1.36 0L0.19 0L3.42-8.58L4.73-8.58L7.83 0L6.56 0ZM3.98-7.31L2.63-3.52L5.30-3.52L4.03-7.31L3.98-7.31ZM8.86-8.58L10.03-8.58L10.03-1.03L14.39-1.03L14.39 0L8.86 0L8.86-8.58ZM15.70-8.58L16.88-8.58L16.88 0L15.70 0L15.70-8.58ZM25.13-6.09L25.13-6.09L24.05-6.09Q23.95-7.73 21.89-7.83L21.89-7.83Q19.97-7.78 19.97-6.33L19.97-6.33Q19.97-5.39 21-5.25L21-5.25L23.44-4.69Q25.36-4.22 25.36-2.34L25.36-2.34Q25.31 0.05 21.98 0.14L21.98 0.14Q20.16 0.14 19.41-0.61L19.41-0.61Q18.47-1.31 18.52-2.77L18.52-2.77L19.64-2.77Q19.69-0.80 21.98-0.75L21.98-0.75Q24.23-0.80 24.28-2.20L24.28-2.20Q24.47-3.38 22.41-3.75L22.41-3.75L20.63-4.13Q18.80-4.64 18.80-6.19L18.80-6.19Q18.94-8.72 21.80-8.81L21.80-8.81Q25.03-8.81 25.13-6.09ZM29.02-7.59L26.11-7.59L26.11-8.58L33.05-8.58L33.05-7.59L30.14-7.59L30.14 0L29.02 0L29.02-7.59ZM34.22-1.27L35.48-1.27L35.48 0L34.22 0L34.22-1.27ZM44.34-8.58L41.11-3.47L41.11 0L39.94 0L39.94-3.47L36.70-8.58L38.06-8.58L40.50-4.45L42.98-8.58L44.34-8.58ZM52.17-4.27L52.17-4.27Q51.98-7.64 49.17-7.83L49.17-7.83Q46.31-7.69 46.17-4.27L46.17-4.27Q46.31-0.94 49.17-0.80L49.17-0.80Q51.98-0.98 52.17-4.27ZM53.34-4.27L53.34-4.27Q53.06 0 49.17 0.14L49.17 0.14Q45.23 0 44.95-4.27L44.95-4.27Q45.19-8.72 49.17-8.81L49.17-8.81Q53.06-8.67 53.34-4.27ZM60.38-3.19L60.38-8.58L61.55-8.58L61.55-3.05Q61.41 0.05 58.03 0.14L58.03 0.14Q54.89 0.05 54.75-2.86L54.75-2.86L54.75-8.58L55.92-8.58L55.92-3.19Q55.97-0.84 58.08-0.80L58.08-0.80Q60.38-0.84 60.38-3.19L60.38-3.19ZM67.45-3.70L64.64-3.70L64.64 0L63.47 0L63.47-8.58L67.45-8.58Q70.31-8.58 70.31-6.28L70.31-6.28Q70.31-4.88 69.09-4.22L69.09-4.22Q70.13-3.94 70.13-2.58L70.13-2.58L70.22-1.03Q70.17-0.38 70.64-0.19L70.64-0.19L70.64 0L69.19 0Q69.05-0.61 69-2.16L69-2.16Q69.05-3.70 67.45-3.70L67.45-3.70ZM67.55-7.64L64.64-7.64L64.64-4.69L67.36-4.69Q69.09-4.69 69.09-6.19L69.09-6.19Q69.09-7.64 67.55-7.64L67.55-7.64ZM77.63 0L76.78-2.48L73.31-2.48L72.42 0L71.25 0L74.48-8.58L75.80-8.58L78.89 0L77.63 0ZM75.05-7.31L73.69-3.52L76.36-3.52L75.09-7.31L75.05-7.31ZM81.33-8.58L85.64-1.64L85.64-8.58L86.77-8.58L86.77 0L85.45 0L81.09-6.94L81.05-6.94L81.05 0L79.92 0L79.92-8.58L81.33-8.58ZM94.97-3.61L92.34-3.61L92.34-4.59L96.09-4.59L96.09 0L95.34 0L95.06-1.08Q94.08 0.09 92.25 0.14L92.25 0.14Q90.52 0.14 89.58-0.75L89.58-0.75Q88.17-2.06 88.22-4.36L88.22-4.36Q88.55-8.63 92.30-8.81L92.30-8.81Q95.48-8.63 95.95-6L95.95-6L94.83-6Q94.36-7.78 92.25-7.83L92.25-7.83Q89.58-7.64 89.44-4.31L89.44-4.31Q89.44-0.75 92.30-0.75L92.30-0.75Q93.33-0.75 94.08-1.31L94.08-1.31Q95.02-2.06 94.97-3.61L94.97-3.61ZM98.02-1.27L99.28-1.27L99.28 0L98.02 0L98.02-1.27ZM103.41-7.59L100.50-7.59L100.50-8.58L107.44-8.58L107.44-7.59L104.53-7.59L104.53 0L103.41 0L103.41-7.59ZM115.27-4.27L115.27-4.27Q115.08-7.64 112.27-7.83L112.27-7.83Q109.41-7.69 109.27-4.27L109.27-4.27Q109.41-0.94 112.27-0.80L112.27-0.80Q115.08-0.98 115.27-4.27ZM116.44-4.27L116.44-4.27Q116.16 0 112.27 0.14L112.27 0.14Q108.33 0 108.05-4.27L108.05-4.27Q108.28-8.72 112.27-8.81L112.27-8.81Q116.16-8.67 116.44-4.27ZM121.45-7.64L119.11-7.64L119.11-4.64L121.41-4.64Q123.19-4.64 123.19-6.19L123.19-6.19Q123.19-7.59 121.45-7.64L121.45-7.64ZM121.83-3.61L119.11-3.61L119.11 0L117.94 0L117.94-8.58L121.83-8.58Q124.27-8.48 124.36-6.19L124.36-6.19Q124.22-3.70 121.83-3.61L121.83-3.61Z" transform="translate(-0.1875, 8.8125)"></path></g></g></g></g></svg>