<svg width="420" height="250" xmlns="http://www.w3.org/2000/svg" version="1.1" preserveAspectRatio="none" ref="svg_canvas">

 <g>
  <title>Layer 1</title>
  <g id="svg_29">
   <g display="inline" transform="translate(155.288 166.526) scale(1 1)" key="shape_KORmEe9j74" ref="shape_KORmEe9j74" id="shape_KORmEe9j74">
    <g id="svg_5" display="inline">
     <rect id="svg_6" y="-173" x="-160" height="267.20051" width="431.2663" fill="rgba(0,0,0,0)"/>
     <svg data-parent="shape_KORmEe9j74" preserveAspectRatio="none" class="style-removed" xml:space="preserve" viewBox="0 0 115.71 69.55" height="247.20051" width="411.2663" y="-163" x="-150" id="svg_1" version="1.1" xmlns:xlink="http://www.w3.org/1999/xlink" xmlns="http://www.w3.org/2000/svg">
      <g id="svg_7">
       <path id="svg_8" stroke-width="0" fill="#142F82" d="m65.62,50.86c-1.75,0.49 -3.5,0.96 -5.24,1.39c2.3,-2 4.61,-4.15 6.89,-6.44c0.41,-0.41 0.81,-0.82 1.21,-1.23l-2.4,0c-3.12,3.11 -6.28,5.97 -9.38,8.55c-12.14,2.79 -23.54,4.09 -32.81,3.94c-0.24,-0.63 -0.38,-1.43 -0.29,-2.46c0,0 0,-0.01 0,-0.01c0,-0.03 0.01,-0.04 0.01,-0.07c1.14,-3.01 2.87,-6.37 5.14,-9.95l-0.42,0c-2.21,3.58 -3.95,6.98 -5.12,10.03c-0.46,0.62 -1.23,1.55 -2.22,2.37c0,0 0,0 0,0c-10.19,-0.52 -17.33,-2.96 -19.28,-7.29c-2.26,-5.02 2.91,-11.56 12.95,-17.9l0,-0.52c-10.94,6.83 -16.58,14.03 -14.07,19.6c1.88,4.19 8.11,6.81 17.01,7.78c0,0 0.01,0 0.01,0c0,0 0,0 0,0c0,0 3.01,0.49 3.91,2.68c-0.25,2.77 0.29,4.96 1.74,6.41c4.92,4.92 18.71,-0.52 33.43,-12.38c3.15,-0.7 6.34,-1.51 9.57,-2.42c3.56,-1.01 6.99,-2.08 10.3,-3.24l-6.98,0c-1.3,0.4 -2.62,0.79 -3.96,1.16zm-42,15.58c-1.13,-1.13 -1.65,-2.79 -1.59,-4.87c0,0 -0.01,0 0,-0.01c0,0 0,0 0,0c0.35,-0.96 1.14,-2.32 2.86,-2.49c0,0 0,0 0,0c8.16,0.11 17.76,-0.85 27.99,-2.89c-13.18,10.05 -24.99,14.52 -29.26,10.26z"/>
       <path id="svg_9" stroke-width="0" fill="#142F82" d="m115.52,18.54c-2.3,-5.11 -10.99,-7.87 -23.16,-8.18c0,0 -0.01,0 -0.01,0c-0.72,-0.39 -1.5,-1.29 -1.35,-3.37c0,0 -0.01,0.01 -0.01,0.02c0,0 0,0 0,-0.01c0,-2.2 -0.57,-3.98 -1.8,-5.2c-4.99,-4.98 -19.1,0.7 -34.05,12.93c0,0 -0.01,0.01 -0.01,0.01c-0.2,-0.17 -0.45,-0.28 -0.73,-0.28c-0.62,0 -1.12,0.49 -1.15,1.1c0,0 -0.01,0 -0.01,0c-1.11,0.29 -2.24,0.6 -3.37,0.92c-2.83,0.8 -5.57,1.65 -8.24,2.53l1.51,0c2.32,-0.76 4.72,-1.49 7.18,-2.18c1.01,-0.28 2,-0.56 3,-0.81c0,0 0,0 0,0c0.02,0.06 0.05,0.1 0.08,0.15c0,0 -0.01,0 -0.01,0.01c-1.08,0.9 -2.15,1.84 -3.22,2.83l0.53,0c0.97,-0.88 1.94,-1.74 2.89,-2.56c0,0 0,0 0,0c0.21,0.2 0.49,0.33 0.8,0.33c0.64,0 1.16,-0.52 1.16,-1.16c0,-0.06 -0.02,-0.1 -0.03,-0.16c0.01,0 0.01,0 0.01,0c11.35,-2.85 22.19,-4.43 31.41,-4.76c0.01,0 0.01,0 0.03,0c0,0 0,0 0,0c0.66,0.12 1.39,0.38 1.95,0.93c0,0 0,0 0,0l0,0.01c-0.66,2.23 -1.73,4.72 -3.13,7.38l1.66,0c0.97,-1.94 1.74,-3.8 2.32,-5.52c0,0 0,0 0,-0.01c0,-0.01 0.01,-0.05 0.03,-0.11c0.08,-0.22 0.14,-0.45 0.22,-0.67c0.37,-0.85 1.28,-2.07 3.46,-2.05c0,0 -0.06,0 -0.14,-0.01c0.02,0 0.04,0 0.06,0l0.08,0c10.98,0.36 18.73,2.81 20.77,7.37c0.15,0.32 0.27,0.65 0.33,1l1.13,0c-0.05,-0.16 -0.12,-0.32 -0.19,-0.48zm-60.14,-3.51c0,0 -0.01,0 -0.01,0c-0.01,-0.01 -0.02,-0.03 -0.03,-0.04c0,-0.01 0.01,-0.01 0.01,-0.01c14.57,-12.02 28.19,-17.77 32.85,-13.11c1.46,1.47 1.9,3.82 1.42,6.82c-0.72,0.67 -1.73,1.37 -3.02,1.72c0,0 -0.01,0 -0.01,0l-0.01,0c-9.25,0.3 -19.99,1.83 -31.2,4.62z"/>
      </g>
     </svg>
    </g>
   </g>
   <g display="inline" transform="translate(103.088 -97.9119) scale(1 1)" key="shape_ywmYPwFRGm" ref="shape_ywmYPwFRGm" class="brand_name" id="shape_ywmYPwFRGm">
    <g id="svg_3" display="inline">
     <svg y="-163" x="-150" id="svg_10" data-parent="shape_ywmYPwFRGm" preserveAspectRatio="none" viewBox="0 0 610.76 751.64" height="751.64" width="610.76" version="1.1" xmlns:xlink="http://www.w3.org/1999/xlink" xmlns="http://www.w3.org/2000/svg">
      <rect id="svg_11" y="313.32" x="104.44" height="125" width="193" fill="rgba(0,0,0,0)"/>
      <g id="svg_12" data-width="192.1696">
       <path id="svg_13" data-glyph-descender="-14.72604" data-glyph-ascender="89.71396" data-glyph-h="104.44" data-glyph-w="96.0848" stroke-width="0.174" stroke="#142f82" fill="#142f82" d="m119.58,336.91001l15.57,0l-8.05,11.81l4.29,0l0,36.97l-14.94,0l0,-29.66l-9.82,0l12.95,-19.12zm30.6,5.54l0,41.36l-14.41,0l0,-41.36l14.41,0zm-19.32,58.49l0,-11.18l14.42,0l0,10.34q0,1.36 0.99,2.3q0.99,0.94 2.35,0.94l0,0l26.32,0l3.97,9.08l-36.56,0q-2.4,0 -4.49,-0.88q-2.09,-0.89 -3.65,-2.46q-1.57,-1.56 -2.46,-3.65q-0.89,-2.09 -0.89,-4.49l0,0zm-24.23,11.48l5.02,-22.66l14.51,0l-5.01,22.66l-14.52,0zm85.64,-22.66l6.06,22.66l-13.78,0l-6.06,-22.66l13.78,0zm-24.12,0l5.64,9.09l-13.89,0l-5.64,-9.09l13.89,0zm30.18,-15.46l0,11.39q-6.58,-1.36 -11.96,-3.14q-5.38,-1.77 -10.08,-4.49l0,0q-4.7,2.72 -10.18,4.6q-5.48,1.88 -12.06,3.03l0,0l0,-11.7q3.45,-1.15 6.32,-2.24q2.87,-1.1 5.27,-2.25l0,0q-5.22,-6.06 -9.5,-14.73l0,0l14.51,0q2.41,4.49 5.12,7.52l0,0q2.3,-2.29 4.23,-5.06q1.93,-2.77 3.81,-6.32l0,0l-14.41,0l-9.4,0l-6.26,0l5.11,-14l15.25,0l-1.77,5.33l25.69,0l0,8.67q-5.01,11.7 -11.59,18.9l0,0q5.01,2.3 11.9,4.49l0,0z"/>
       <path id="svg_14" data-glyph-descender="-14.72604" data-glyph-ascender="89.71396" data-glyph-h="104.44" data-glyph-w="96.0848" stroke-width="0.174" stroke="#142f82" fill="#142f82" d="m202.3048,412.42001l5.43,-16.6l16.08,0l-5.43,16.6l-16.08,0zm25.9,-16.6l16.18,0l5.44,16.6l-16.19,0l-5.43,-16.6zm22.56,0l16.08,0l5.43,16.6l-16.08,0l-5.43,-16.6zm22.45,0l16.19,0l5.32,16.6l-16.08,0l-5.43,-16.6zm10.97,-37.6l-5.85,0l-3.45,7.1l8.98,0l10.34,25.59l-14.72,0l-7.73,-19.01l-9.09,19.01l-15.35,0l16.19,-32.69l-13.16,0l0,-8.98l14.2,0l0,-12.22l14.73,0l0,12.22l4.07,0l-1.25,-12.22l10.13,0l2.19,21.2l-4.91,0l-5.32,0zm-81.57,32.69l3.65,-8.98l8.15,0l-9.29,-13.06l13.15,0l7.11,9.92l0.94,-3.44l-12.54,-18.91l13.27,0l3.44,5.23l3.03,-9.93l-16.39,0l-4.39,0l-10.13,0l6.58,-14.72l14.41,0l-2.51,5.74l15.15,0l6.16,0l8.36,0l-14.63,48.15l-1.25,0l-13.26,0l-19.01,0z"/>
      </g>
     </svg>
    </g>
   </g>
   <g display="inline" transform="translate(378.729 253.21) scale(1 1)" key="shape_8uV3sOWEqb" ref="shape_8uV3sOWEqb" class="brand_slogan" id="shape_8uV3sOWEqb">
    <g id="svg_4" display="inline">
     <svg y="-163" x="-150" id="svg_15" data-parent="shape_8uV3sOWEqb" preserveAspectRatio="none" viewBox="0 0 253.4 164.10000000000002" height="164.1" width="253.4" version="1.1" xmlns:xlink="http://www.w3.org/1999/xlink" xmlns="http://www.w3.org/2000/svg">
      <rect id="svg_16" y="68.55" x="22.85" height="27" width="162" fill="rgba(0,0,0,0)"/>
      <g id="svg_17" data-width="161.3335">
       <path id="svg_18" data-glyph-descender="-4.66372" data-glyph-ascender="19.1458" data-glyph-h="23.80952" data-glyph-w="16.37881" stroke-width="0.038" stroke="#142f82" fill="#142f82" d="m29.9,78.72l0,7.2l2.28,0l0,-7.2l6.83,-8.74l-2.88,0l-5.09,6.51l-5.08,-6.51l-2.89,0l6.83,8.74z"/>
       <path id="svg_19" data-glyph-descender="-4.66372" data-glyph-ascender="19.1458" data-glyph-h="23.80952" data-glyph-w="17.84041" stroke-width="0.038" stroke="#142f82" fill="#142f82" d="m48.15881,69.69q3.41,0 5.83,2.43l0,0q2.41,2.42 2.41,5.83l0,0q0,3.43 -2.41,5.84l0,0q-2.42,2.42 -5.83,2.42l0,0q-3.43,0 -5.84,-2.42l0,0q-2.42,-2.41 -2.42,-5.84l0,0q0,-3.41 2.42,-5.83l0,0q2.41,-2.43 5.84,-2.43l0,0zm0,2.29l0,0q-2.48,0 -4.23,1.74l0,0q-1.75,1.75 -1.75,4.23l0,0q0,2.48 1.75,4.23l0,0q1.75,1.75 4.23,1.75l0,0q2.47,0 4.21,-1.75l0,0q1.75,-1.75 1.75,-4.23l0,0q0,-2.48 -1.75,-4.23l0,0q-1.74,-1.74 -4.21,-1.74z"/>
       <path id="svg_20" data-glyph-descender="-4.66372" data-glyph-ascender="19.1458" data-glyph-h="23.80952" data-glyph-w="14.74985" stroke-width="0.038" stroke="#142f82" fill="#142f82" d="m64.43922,86.21q2.6,0 4.43,-1.51l0,0q1.83,-1.49 1.83,-3.61l0,0l0,-11.11l-2.27,0l0,11.11q0,1.17 -1.16,2l0,0q-1.17,0.84 -2.83,0.84l0,0q-1.65,0 -2.81,-0.84l0,0q-1.17,-0.83 -1.17,-2l0,0l0,-11.11l-2.27,0l0,11.11q0,2.12 1.83,3.61l0,0q1.84,1.51 4.42,1.51l0,0z"/>
       <path id="svg_21" data-glyph-descender="-4.66372" data-glyph-ascender="19.1458" data-glyph-h="23.80952" data-glyph-w="14.30356" stroke-width="0.038" stroke="#142f82" fill="#142f82" d="m79.43907,79.66l-4.23,0l0,6.26l-2.27,0l0,-15.94l7.68,0q2,0 3.42,1.42l0,0q1.41,1.42 1.41,3.43l0,0q0,1.99 -1.41,3.41l0,0q-0.87,0.87 -1.97,1.21l0,0l4.52,6.47l-2.76,0l-4.39,-6.26zm1.18,-7.4l-5.41,0l0,5.12l5.41,0q1.06,0 1.81,-0.75l0,0q0.75,-0.74 0.75,-1.8l0,0q0,-1.06 -0.75,-1.82l0,0q-0.75,-0.75 -1.81,-0.75l0,0z"/>
       <path id="svg_22" data-glyph-descender="-4.66372" data-glyph-ascender="19.1458" data-glyph-h="23.80952" data-glyph-w="16.37881" stroke-width="0.038" stroke="#142f82" fill="#142f82" d="m98.00263,81.65l-7.37,0l-1.81,4.27l-2.48,0l6.76,-15.94l2.41,0l6.77,15.94l-2.47,0l-1.81,-4.27zm-6.4,-2.27l5.43,0l-2.72,-6.41l-2.71,6.41z"/>
       <path id="svg_23" data-glyph-descender="-4.66372" data-glyph-ascender="19.1458" data-glyph-h="23.80952" data-glyph-w="14.74985" stroke-width="0.038" stroke="#142f82" fill="#142f82" d="m105.87144,69.98l-2.25,0l0,15.94l2.27,0l0,-11.84l7.99,11.84l2.25,0l0,-15.94l-2.27,0l0,11.84l-7.99,-11.84z"/>
       <path id="svg_24" data-glyph-descender="-4.66372" data-glyph-ascender="19.1458" data-glyph-h="23.80952" data-glyph-w="17.84041" stroke-width="0.038" stroke="#142f82" fill="#142f82" d="m134.34129,76.81l-8.74,0l0,2.28l6.44,0q-0.31,1.75 -1.65,3.09l0,0q-1.75,1.75 -4.23,1.75l0,0q-2.47,0 -4.21,-1.75l0,0q-1.75,-1.75 -1.75,-4.23l0,0q0,-2.48 1.75,-4.23l0,0q1.74,-1.74 4.21,-1.74l0,0q2.79,0 4.59,2.13l0,0l1.74,-1.46q-2.48,-2.96 -6.33,-2.96l0,0q-3.41,0 -5.83,2.43l0,0q-2.41,2.42 -2.41,5.83l0,0q0,3.43 2.41,5.84l0,0q2.42,2.42 5.83,2.42l0,0q3.43,0 5.84,-2.42l0,0q2.42,-2.41 2.42,-5.84l0,0q0,-0.57 -0.08,-1.14l0,0z"/>
       <path id="svg_25" data-glyph-descender="-4.66372" data-glyph-ascender="19.1458" data-glyph-h="23.80952" data-glyph-w="4.50752" stroke-width="0.038" stroke="#142f82" fill="#142f82" d="m138.4817,85.92l0,-2.28l-2.27,0l0,2.28l2.27,0z"/>
       <path id="svg_26" data-glyph-descender="-4.66372" data-glyph-ascender="19.1458" data-glyph-h="23.80952" data-glyph-w="13.28826" stroke-width="0.038" stroke="#142f82" fill="#142f82" d="m145.09922,85.92l0,-13.66l-4.83,0l0,-2.28l11.95,0l0,2.28l-4.84,0l0,13.66l-2.28,0z"/>
       <path id="svg_27" data-glyph-descender="-4.66372" data-glyph-ascender="19.1458" data-glyph-h="23.80952" data-glyph-w="17.84041" stroke-width="0.038" stroke="#142f82" fill="#142f82" d="m161.81748,69.69q3.41,0 5.83,2.43l0,0q2.41,2.42 2.41,5.83l0,0q0,3.43 -2.41,5.84l0,0q-2.42,2.42 -5.83,2.42l0,0q-3.43,0 -5.84,-2.42l0,0q-2.42,-2.41 -2.42,-5.84l0,0q0,-3.41 2.42,-5.83l0,0q2.41,-2.43 5.84,-2.43l0,0zm0,2.29l0,0q-2.48,0 -4.23,1.74l0,0q-1.75,1.75 -1.75,4.23l0,0q0,2.48 1.75,4.23l0,0q1.75,1.75 4.23,1.75l0,0q2.47,0 4.21,-1.75l0,0q1.75,-1.75 1.75,-4.23l0,0q0,-2.48 -1.75,-4.23l0,0q-1.74,-1.74 -4.21,-1.74z"/>
       <path id="svg_28" data-glyph-descender="-4.66372" data-glyph-ascender="19.1458" data-glyph-h="23.80952" data-glyph-w="13.45562" stroke-width="0.038" stroke="#142f82" fill="#142f82" d="m178.39788,80.23l-4.28,0l0,5.69l-2.27,0l0,-15.94l6.55,0q2.11,0 3.61,1.5l0,0q1.51,1.51 1.51,3.63l0,0q0,2.12 -1.51,3.62l0,0q-1.5,1.5 -3.61,1.5l0,0zm0,-7.97l-4.28,0l0,5.69l4.28,0q1.17,0 2,-0.84l0,0q0.84,-0.82 0.84,-2l0,0q0,-1.19 -0.84,-2.01l0,0q-0.83,-0.84 -2,-0.84l0,0z"/>
      </g>
     </svg>
    </g>
   </g>
  </g>
 </g>
</svg>